<svg width="375" height="36" viewBox="0 0 375 36" fill="none" xmlns="http://www.w3.org/2000/svg">
<path d="M0.634766 1.01465H7.95898V23.207L29.0283 1.01465H32.6904V36H25.3906V13.8076L4.29688 36H0.634766V1.01465ZM46.3867 36H39.0625V0.96582H63.6963V7.72852H46.3867V36ZM74.3164 18.4951C74.3164 24.4277 78.3447 29.3838 84.5703 29.3838C91.0889 29.3838 94.7998 24.3789 94.7998 18.4951C94.7998 12.0254 90.3809 7.60645 84.5703 7.60645C78.1006 7.60645 74.3164 12.6113 74.3164 18.4951ZM66.7236 18.4951C66.7236 8.55859 74.585 0.990234 84.5703 0.990234C95.2148 0.990234 102.417 8.99805 102.417 18.4951C102.417 28.8467 94.3604 36 84.5703 36C73.9746 36 66.7236 28.0654 66.7236 18.4951ZM114.966 15.2236H124.561C126.66 15.2236 128.931 13.9297 128.931 11.4883C128.931 9.14453 126.782 7.75293 124.536 7.75293H114.966V15.2236ZM107.666 1.01465H125.464C131.372 1.01465 136.084 5.0918 136.084 11.4883C136.084 17.4209 131.519 21.8154 125.464 21.8154H114.966V36H107.666V1.01465ZM147.534 21.791V29.2617H157.104C159.204 29.2617 161.499 27.9678 161.499 25.5264C161.499 23.1826 159.448 21.791 157.129 21.791H147.534ZM147.534 15.1992H158.032C164.038 15.1992 168.652 19.2764 168.652 25.5264C168.652 31.8496 164.062 36 158.032 36H140.234V1.01465H147.534V15.1992ZM219.482 1.01465H223.145V36H215.845V14.1738L204.175 27.4795L192.505 14.1738V36H185.205V1.01465H188.867L204.175 18.5195L219.482 1.01465ZM234.277 28.1387C234.912 28.5049 235.571 28.6758 236.279 28.6758C237.817 28.6758 238.989 28.0166 241.113 24.3057L241.211 24.1348L228.613 0.96582H236.475L245.142 16.9082L253.809 0.96582H261.67L247.876 26.332C245.41 30.8975 242.334 36 236.304 36C234.326 36 232.471 35.5117 230.713 34.5352L234.277 28.1387ZM290.137 0.941406H298.706L286.792 17.4941L300.122 36H291.528L282.495 23.4756L273.462 36H264.893L278.223 17.4941L266.284 0.941406H274.878L282.495 11.5127L290.137 0.941406ZM305.566 1.01465H312.891V23.207L333.96 1.01465H337.622V36H330.322V13.8076L309.229 36H305.566V1.01465ZM366.992 0.990234H374.316V36H366.992V20.2529H351.294V36H343.994V0.990234H351.294V13.4902H366.992V0.990234Z" fill="black"/>
</svg>
